<svg width="18" height="18" viewBox="0 0 512 512" fill="none" xmlns="http://www.w3.org/2000/svg">
<g clip-path="url(#clip0_3_86)">
<mask id="mask0_3_86" style="mask-type:luminance" maskUnits="userSpaceOnUse" x="0" y="0" width="512" height="512">
<path d="M156.643 0H355.357C441.806 0 512 70.194 512 156.643V355.357C512 441.806 441.806 512 355.357 512H156.643C70.194 512 0 441.806 0 355.357V156.643C0 70.194 70.194 0 156.643 0Z" fill="white"/>
</mask>
<g mask="url(#mask0_3_86)">
<path d="M223.996 -253.896L-254.025 288.122L287.993 766.143L766.014 224.125L223.996 -253.896Z" fill="url(#paint0_linear_3_86)"/>
</g>
<path d="M127.733 147.137C127.733 147.137 130.489 136.394 138.138 125.933C148.375 111.871 169.298 105.797 185.215 112.715C195.508 117.159 204.732 125.314 220.087 137.126C222 138.588 223.856 140.107 225.656 141.738C240.898 155.518 340.846 240.504 366.831 262.552C374.649 269.189 380.499 277.964 383.03 287.863C385.673 298.212 385.223 311.204 374.368 323.86C369.306 329.765 362.781 334.265 355.638 337.302L202.707 402.209L346.414 311.992C347.708 311.204 348.945 310.417 350.239 309.686C357.101 305.636 386.911 285.5 355.976 258.953C353.107 256.478 349.957 254.284 346.695 252.26L173.516 145.619C172.391 144.944 171.323 144.212 170.254 143.425C165.529 140.163 147.137 129.589 127.789 147.081" fill="white"/>
<path d="M157.036 196.633V366.043C157.036 374.593 166.429 379.767 173.685 375.268L312.836 288.088C319.754 283.757 319.585 273.689 312.611 269.527L173.46 187.296C166.204 183.022 157.093 188.252 157.093 196.633" fill="white"/>
</g>
<defs>
<linearGradient id="paint0_linear_3_86" x1="70.6237" y1="486.922" x2="467.728" y2="36.6538" gradientUnits="userSpaceOnUse">
<stop stop-color="#EA4F83"/>
<stop offset="1" stop-color="#61489C"/>
</linearGradient>
<clipPath id="clip0_3_86">
<rect width="512" height="512" fill="white"/>
</clipPath>
</defs>
</svg>
